<svg xmlns="http://www.w3.org/2000/svg" width="1200" height="630" viewBox="0 0 1200 630">
  <defs>
    <linearGradient id="bg" x1="0" y1="0" x2="1" y2="1">
      <stop offset="0%" stop-color="#0f172a"/>
      <stop offset="50%" stop-color="#1e293b"/>
      <stop offset="100%" stop-color="#0f172a"/>
    </linearGradient>
    <linearGradient id="titleGrad" x1="0" y1="0" x2="1" y2="0">
      <stop offset="0%" stop-color="#00bcf2"/>
      <stop offset="100%" stop-color="#0078d4"/>
    </linearGradient>
    <linearGradient id="accentGrad" x1="0" y1="0" x2="1" y2="0">
      <stop offset="0%" stop-color="#00bcf2"/>
      <stop offset="33%" stop-color="#0078d4"/>
      <stop offset="66%" stop-color="#7b5ea7"/>
      <stop offset="100%" stop-color="#e81123"/>
    </linearGradient>
  </defs>
  <rect width="1200" height="630" fill="url(#bg)"/>
  <rect x="0" y="0" width="1200" height="6" fill="url(#accentGrad)"/>

  <!-- Shield icon -->
  <g transform="translate(940, 60)">
    <path d="M45 5 L85 25 L85 55 C85 75 65 90 45 95 C25 90 5 75 5 55 L5 25 Z" fill="none" stroke="#00bcf2" stroke-width="2.5" opacity="0.6"/>
    <text x="45" y="62" font-family="Arial,sans-serif" font-size="30" font-weight="bold" fill="#00bcf2" text-anchor="middle" opacity="0.6">SC</text>
  </g>

  <!-- Badge -->
  <rect x="80" y="80" width="280" height="34" rx="17" fill="rgba(255,255,255,0.1)" stroke="rgba(255,255,255,0.2)" stroke-width="1"/>
  <circle cx="100" cy="97" r="4" fill="#00bcf2"/>
  <text x="112" y="102" font-family="Arial,sans-serif" font-size="14" font-weight="600" fill="#94a3b8" letter-spacing="1">MICROSOFT SC-900 EXAM PREP</text>

  <!-- Title -->
  <text x="80" y="180" font-family="Arial,sans-serif" font-size="56" font-weight="800" fill="#f1f5f9">Security, Compliance &amp;</text>
  <text x="80" y="248" font-family="Arial,sans-serif" font-size="56" font-weight="800">Identity </text>
  <text x="260" y="248" font-family="Arial,sans-serif" font-size="56" font-weight="800" fill="url(#titleGrad)">Fundamentals</text>

  <!-- Subtitle -->
  <text x="80" y="310" font-family="Arial,sans-serif" font-size="22" fill="#94a3b8">Comprehensive study guide covering all exam domains —</text>
  <text x="80" y="342" font-family="Arial,sans-serif" font-size="22" fill="#94a3b8">Entra ID, Defender XDR, Sentinel, Purview &amp; more</text>

  <!-- Pillars -->
  <g transform="translate(80, 400)">
    <rect x="0" y="0" width="200" height="36" rx="8" fill="rgba(255,255,255,0.05)" stroke="rgba(0,188,242,0.3)" stroke-width="1"/>
    <text x="14" y="24" font-family="Arial,sans-serif" font-size="14" font-weight="500" fill="#cbd5e1">🔐 Security Concepts</text>

    <rect x="216" y="0" width="200" height="36" rx="8" fill="rgba(255,255,255,0.05)" stroke="rgba(0,120,212,0.3)" stroke-width="1"/>
    <text x="230" y="24" font-family="Arial,sans-serif" font-size="14" font-weight="500" fill="#cbd5e1">🪪 Identity &amp; Access</text>

    <rect x="432" y="0" width="210" height="36" rx="8" fill="rgba(255,255,255,0.05)" stroke="rgba(123,94,167,0.3)" stroke-width="1"/>
    <text x="446" y="24" font-family="Arial,sans-serif" font-size="14" font-weight="500" fill="#cbd5e1">🛡️ Threat Protection</text>

    <rect x="658" y="0" width="220" height="36" rx="8" fill="rgba(255,255,255,0.05)" stroke="rgba(232,17,35,0.3)" stroke-width="1"/>
    <text x="672" y="24" font-family="Arial,sans-serif" font-size="14" font-weight="500" fill="#cbd5e1">📋 Compliance &amp; Governance</text>
  </g>

  <!-- Footer -->
  <text x="80" y="530" font-family="Arial,sans-serif" font-size="13" fill="#475569">
    <tspan fill="#64748b">●</tspan> 7 Domains  <tspan fill="#64748b">●</tspan> 600+ Notes  <tspan fill="#64748b">●</tspan> Flashcards</text>
  <text x="1020" y="530" font-family="Arial,sans-serif" font-size="13" fill="#475569">SC-900 Study Prep</text>
</svg>
